<svg xmlns="http://www.w3.org/2000/svg" viewBox="0 0 100 100" fill="none" shape-rendering="auto" aria-hidden="true"><!-- Generated by DiceBear (https://www.dicebear.com) --><metadata xmlns:rdf="http://www.w3.org/1999/02/22-rdf-syntax-ns#" xmlns:xsi="http://www.w3.org/2001/XMLSchema-instance" xmlns:dc="http://purl.org/dc/elements/1.1/" xmlns:dcterms="http://purl.org/dc/terms/"><rdf:RDF><rdf:Description><dc:title>Blobs</dc:title><dc:creator>DiceBear</dc:creator><dc:source xsi:type="dcterms:URI">https://www.dicebear.com</dc:source><dcterms:license xsi:type="dcterms:URI">https://creativecommons.org/publicdomain/zero/1.0/</dcterms:license><dc:rights>“Blobs” (https://www.dicebear.com) by “DiceBear”, licensed under “CC0 1.0” (https://creativecommons.org/publicdomain/zero/1.0/)</dc:rights></rdf:Description></rdf:RDF></metadata><defs><g id="blob-melt-4b5f3da8"><path d="M77.05 45.57c.65 7.31 11.37 25.75 5.12 31.32-6.26 5.57-33.09 3.58-42.66 2.13-9.58-1.46-10.85-2.61-14.8-10.87s-14.05-30.39-8.9-38.7c5.15-8.3 29.37-11.74 39.78-11.15 10.42.59 19.11 10.16 22.68 14.7 3.58 4.55-1.87 5.25-1.22 12.57" fill="#ffffff"/></g><g id="blob-drop-4b5f3da8"><path d="M77.67 56.19C75.28 66.25 73.5 82.5 66.56 85.58c-6.93 3.08-21.42-6.63-30.51-10.91-9.08-4.28-22.71-6.29-23.99-14.78-1.28-8.5 4.85-30.42 16.33-36.2 11.47-5.77 44.29-3.88 52.51 1.53 8.21 5.42-.84 20.91-3.23 30.97" fill="#ffffff"/></g><g id="blob-dune-4b5f3da8"><path d="M75.03 41.71c-.97 8.49-6.34 30.79-12.35 36.7-6.01 5.9-14.23 3.53-23.69-1.27-9.46-4.81-33.78-18.99-33.06-27.56.73-8.57 26.98-20.17 37.41-23.86s19.89-.93 25.17 1.73c5.29 2.67 7.49 5.77 6.52 14.26" fill="#ffffff"/></g><g id="body-trio-4b5f3da8"><g opacity=".22" transform="matrix(1.7 0 0 1.7 -35 -35)"><g class="dbba-l1"><use transform="translate(-4.9013, 4.4549) rotate(-149.328, 50, 50) translate(50, 50) scale(0.9099) translate(-50, -50)" href="#blob-melt-4b5f3da8"/></g></g><g opacity=".38" transform="matrix(.95 0 0 .95 2.5 2.5)"><g class="dbba-l2"><use transform="translate(0.042, -6.4755) rotate(-25.1637, 50, 50) translate(50, 50) scale(1.0049) translate(-50, -50)" href="#blob-drop-4b5f3da8"/></g></g><g opacity=".6" transform="matrix(.42 0 0 .42 29 29)"><g class="dbba-l3"><use transform="translate(3.5618, -4.3676) rotate(54.4523, 50, 50) translate(50, 50) scale(1.067) translate(-50, -50)" href="#blob-dune-4b5f3da8"/></g></g></g><g id="animation-none-4b5f3da8"></g><clipPath id="clip-4b5f3da8"><rect width="100" height="100" rx="0" ry="0"/></clipPath></defs><g clip-path="url(#clip-4b5f3da8)"><rect width="100" height="100" fill="#1d4ed8"/><use transform="translate(-9.7148, -2.2939)" href="#body-trio-4b5f3da8"/><use href="#animation-none-4b5f3da8"/></g></svg>